<svg xmlns="http://www.w3.org/2000/svg" version="1.1" xmlns:xlink="http://www.w3.org/1999/xlink" xmlns:svgjs="http://svgjs.dev/svgjs" width="1000" height="224" viewBox="0 0 1000 224"><g transform="matrix(1,0,0,1,-0.6060522448015604,-0.4895911753382052)"><svg viewBox="0 0 396 89" data-background-color="#ffffff" preserveAspectRatio="xMidYMid meet" height="224" width="1000" xmlns="http://www.w3.org/2000/svg" xmlns:xlink="http://www.w3.org/1999/xlink"><g id="tight-bounds" transform="matrix(1,0,0,1,0.23999788312440273,0.19452595438832532)"><svg viewBox="0 0 395.5199999999999 88.61094291074265" height="88.61094291074265" width="395.5199999999999"><g><svg viewBox="0 0 570.9508069367535 127.91385861224494" height="88.61094291074265" width="395.5199999999999"><g transform="matrix(1,0,0,1,175.43080693675347,2.2522218231292612)"><svg viewBox="0 0 395.52 123.40941496598641" height="123.40941496598641" width="395.52"><g id="textblocktransform"><svg viewBox="0 0 395.52 123.40941496598641" height="123.40941496598641" width="395.52" id="textblock"><g><svg viewBox="0 0 395.52 123.40941496598641" height="123.40941496598641" width="395.52"><g transform="matrix(1,0,0,1,0,0)"><svg width="395.52" viewBox="2.799999952316284 -33.95000076293945 110.23999786376953 34.400001525878906" height="123.40941496598641" data-palette-color="#fe9e0d"><path d="M2.8-33.95L2.8-33.95Q3.55-33.9 4.67-33.88 5.8-33.85 7.05-33.83 8.3-33.8 9.43-33.8 10.55-33.8 11.2-33.8L11.2-33.8 11.2-6.9Q11.2-5.05 11.55-4.05 11.9-3.05 12.9-2.65 13.9-2.25 15.75-2.25L15.75-2.25 15.75 0Q14.35 0 12.53 0 10.7 0 8.83 0.03 6.95 0.05 5.35 0.08 3.75 0.1 2.8 0.15L2.8 0.15Q2.8-0.55 2.85-1.07 2.9-1.6 3.05-2L3.05-2Q4.4-2.1 5.15-2.5 5.9-2.9 6.2-3.93 6.5-4.95 6.5-6.9L6.5-6.9 6.5-27.45Q6.5-29.15 6.2-30.05 5.9-30.95 5.15-31.35 4.4-31.75 3.05-31.8L3.05-31.8Q2.9-32.2 2.85-32.77 2.8-33.35 2.8-33.95ZM25.8-8.55L25.8-8.55Q26.55-8.35 27.05-8.08 27.55-7.8 28-7.35L28-7.35Q27.45-5.65 27.08-3.65 26.7-1.65 26.45 0.1L26.45 0.1Q25.5 0.05 23.88 0.05 22.25 0.05 20.18 0.03 18.1 0 15.75 0L15.75 0 15.75-2.25 16.05-2.25Q19.65-2.25 21.48-2.98 23.3-3.7 24.2-5.1 25.1-6.5 25.8-8.55ZM22.3-22.5L22.3-22.5Q22.25-21.25 22.23-19.8 22.2-18.35 22.2-17.05L22.2-17.05Q22.2-15.75 22.23-14.15 22.25-12.55 22.3-11.25L22.3-11.25Q21.65-11.25 21.1-11.3 20.55-11.35 20-11.5L20-11.5Q19.8-14.1 18.63-15.03 17.45-15.95 14.35-15.95L14.35-15.95 10.75-15.95 10.75-18.1 14.35-18.1Q17.45-18.1 18.65-18.9 19.85-19.7 19.9-22.15L19.9-22.15Q20.55-22.35 21.1-22.43 21.65-22.5 22.3-22.5ZM25.25-33.95L25.25-33.95Q25.35-32.85 25.5-31.4 25.65-29.95 25.85-28.55 26.05-27.15 26.3-26.05L26.3-26.05Q25.9-25.7 25.33-25.58 24.75-25.45 24.05-25.45L24.05-25.45Q23.95-27 23.25-28.45 22.55-29.9 20.83-30.85 19.1-31.8 15.85-31.8L15.85-31.8 10.15-31.8 11.2-33.8Q15.15-33.8 17.98-33.83 20.8-33.85 22.63-33.9 24.45-33.95 25.25-33.95ZM47.8-21.6L47.8-21.6Q47.75-20.4 47.72-19.05 47.7-17.7 47.9-16.4L47.9-16.4Q47.4-16.1 46.75-15.95 46.1-15.8 45.4-15.8L45.4-15.8Q45.3-17.2 44.57-18.45 43.85-19.7 42.65-20.5 41.45-21.3 39.8-21.3L39.8-21.3Q38.25-21.3 37.32-20.55 36.4-19.8 36.4-18.55L36.4-18.55Q36.4-17.7 36.77-17.05 37.15-16.4 38.42-15.68 39.7-14.95 42.35-13.9L42.35-13.9Q45.05-12.9 46.6-11.9 48.15-10.9 48.8-9.65 49.45-8.4 49.45-6.6L49.45-6.6Q49.45-4.5 48.25-2.9 47.05-1.3 44.97-0.43 42.9 0.45 40.3 0.45L40.3 0.45Q37.3 0.45 35.52-0.03 33.75-0.5 32.05-1.4L32.05-1.4Q32.15-2.2 32.17-3.35 32.2-4.5 32.2-5.65 32.2-6.8 32.1-7.6L32.1-7.6Q32.5-7.9 33.22-8.03 33.95-8.15 34.7-8.15L34.7-8.15Q35.1-5 36.65-3.45 38.2-1.9 40.8-1.9L40.8-1.9Q42.85-1.9 43.97-2.8 45.1-3.7 45.1-5.1L45.1-5.1Q45.1-6 44.67-6.65 44.25-7.3 43.1-7.95 41.95-8.6 39.7-9.5L39.7-9.5Q37-10.6 35.37-11.55 33.75-12.5 33.02-13.8 32.3-15.1 32.3-17.1L32.3-17.1Q32.3-18.7 33.1-19.88 33.9-21.05 35.17-21.83 36.45-22.6 37.9-22.98 39.35-23.35 40.6-23.35L40.6-23.35Q42.85-23.35 44.55-22.9 46.25-22.45 47.8-21.6ZM62.2 0.45L62.2 0.45Q61.35-1.95 60.52-4.28 59.7-6.6 58.82-8.88 57.95-11.15 57.07-13.4 56.2-15.65 55.3-17.9L55.3-17.9Q54.75-19.3 54.17-19.9 53.6-20.5 52.5-20.85L52.5-20.85Q52.3-21.35 52.25-21.95 52.2-22.55 52.2-23L52.2-23Q53.2-22.95 54.32-22.93 55.45-22.9 57.1-22.9L57.1-22.9Q58.75-22.9 60.05-22.95 61.35-23 62.6-23.05L62.6-23.05Q62.6-22.55 62.55-21.9 62.5-21.25 62.35-20.85L62.35-20.85Q60.95-20.7 60.37-20.35 59.8-20 59.82-19.4 59.85-18.8 60.2-17.85L60.2-17.85Q61.35-14.95 62.6-11.5 63.85-8.05 64.85-5.1L64.85-5.1 64.2-5.05 71.1-22.9Q71.5-23 72.05-23.05 72.6-23.1 73.1-23.1L73.1-23.1Q74.75-19.3 76.72-14.5 78.7-9.7 80.55-4.95L80.55-4.95 79.85-4.95 83-14.4Q83.8-16.85 83.72-18.18 83.65-19.5 82.95-20.1 82.25-20.7 81-20.85L81-20.85Q80.8-21.4 80.67-21.98 80.55-22.55 80.55-23.05L80.55-23.05Q81.5-23 82.7-22.95 83.9-22.9 85-22.9L85-22.9Q86.34-22.9 87.45-22.95 88.55-23 89.4-23.05L89.4-23.05Q89.4-22.4 89.32-21.9 89.25-21.4 89-20.85L89-20.85Q88.25-20.65 87.72-20.13 87.2-19.6 86.67-18.3 86.15-17 85.3-14.55L85.3-14.55 80.25 0Q79.95 0.15 79.6 0.25 79.25 0.35 78.85 0.4 78.45 0.45 77.95 0.45L77.95 0.45Q76.8-2.55 75.47-5.73 74.15-8.9 72.85-12 71.55-15.1 70.3-17.85L70.3-17.85 71.85-18.7 64.4 0Q64.15 0.15 63.85 0.25 63.55 0.35 63.15 0.4 62.75 0.45 62.2 0.45ZM107.29 0.45L107.29 0.45Q106.74 0.2 106.42-0.45 106.09-1.1 106.09-2.5L106.09-2.5Q106.09-2.95 106.14-3.58 106.19-4.2 106.34-4.7L106.34-4.7 106.44-4.7Q106.29-3.9 105.77-2.98 105.24-2.05 104.39-1.35L104.39-1.35Q103.54-0.6 102.24-0.13 100.94 0.35 99.09 0.35L99.09 0.35Q95.94 0.35 94.29-1.07 92.64-2.5 92.64-4.95L92.64-4.95Q92.64-6.9 93.57-8.28 94.49-9.65 95.97-10.58 97.44-11.5 99.17-12.05 100.89-12.6 102.54-12.9 104.19-13.2 105.44-13.4L105.44-13.4Q105.44-15.45 105.37-16.6 105.29-17.75 105.07-18.43 104.84-19.1 104.39-19.6L104.39-19.6Q103.79-20.35 103.02-20.73 102.24-21.1 101.29-21.1L101.29-21.1Q99.64-21.1 98.69-20.08 97.74-19.05 97.34-17.7 96.94-16.35 96.89-15.3L96.89-15.3Q96.34-15.3 95.52-15.38 94.69-15.45 94.29-15.65L94.29-15.65Q94.39-16.9 94.34-18.45 94.29-20 94.04-21.1L94.04-21.1Q96.09-22.15 98.37-22.75 100.64-23.35 102.54-23.35L102.54-23.35Q104.39-23.35 105.72-22.83 107.04-22.3 107.84-21.45L107.84-21.45Q109.14-20.2 109.54-18.18 109.94-16.15 109.94-12.8L109.94-12.8 109.94-7.3Q109.94-5.9 110.17-5.08 110.39-4.25 111.04-3.88 111.69-3.5 113.04-3.4L113.04-3.4Q113.04-2.9 112.99-2.27 112.94-1.65 112.74-1.1L112.74-1.1Q111.49-1.05 109.97-0.63 108.44-0.2 107.29 0.45ZM100.49-2.4L100.49-2.4Q101.59-2.4 102.74-3.13 103.89-3.85 104.67-5.4 105.44-6.95 105.44-9.45L105.44-9.45 105.44-11.35Q104.19-11.2 102.79-10.93 101.39-10.65 100.19-10.1 98.99-9.55 98.24-8.58 97.49-7.6 97.49-5.95L97.49-5.95Q97.49-4.1 98.39-3.25 99.29-2.4 100.49-2.4Z" opacity="1" transform="matrix(1,0,0,1,0,0)" fill="#fe9e0d" class="wordmark-text-0" data-fill-palette-color="primary" id="text-0"></path></svg></g></svg></g></svg></g></svg></g><g><svg viewBox="0 0 146.29680588924327 127.91385861224494" height="127.91385861224494" width="146.29680588924327"><g><svg xmlns="http://www.w3.org/2000/svg" xmlns:xlink="http://www.w3.org/1999/xlink" version="1.1" x="0" y="0" viewBox="10.000052452087402 15.026500701904297 79.99989318847656 69.94749450683594" enable-background="new 0 0 100 100" xml:space="preserve" height="127.91385861224494" width="146.29680588924327" class="icon-icon-0" data-fill-palette-color="accent" id="icon-0"><path d="M85.954 36.922c-0.482 0-0.972-0.087-1.449-0.27L50 23.403 15.495 36.652c-2.086 0.801-4.425-0.241-5.225-2.326-0.801-2.085 0.241-4.425 2.326-5.225L48.55 15.295c0.933-0.358 1.966-0.358 2.9 0l35.954 13.806c2.085 0.801 3.127 3.14 2.326 5.225C89.112 35.935 87.579 36.922 85.954 36.922z" fill="#fe9e0d" data-fill-palette-color="accent"></path><g fill="#fe9e0d" data-fill-palette-color="accent"><circle cx="26.491" cy="53.376" r="7.6" fill="#fe9e0d" data-fill-palette-color="accent"></circle><path d="M40.647 71.829h-18.2c-2.234 0-4.044-1.811-4.044-4.044s1.811-4.044 4.044-4.044h14.156V49.585c0-2.234 1.811-4.044 4.044-4.044 2.234 0 4.045 1.811 4.045 4.044v18.2C44.692 70.019 42.881 71.829 40.647 71.829z" fill="#fe9e0d" data-fill-palette-color="accent"></path><path d="M81.092 62.603v9.226h-33.62V53.376h21.107C75.531 53.376 81.092 54.893 81.092 62.603z" fill="#fe9e0d" data-fill-palette-color="accent"></path></g><path d="M82.807 84.974H17.193c-2.234 0-4.044-1.811-4.044-4.044s1.811-4.044 4.044-4.044h65.614c2.234 0 4.044 1.811 4.044 4.044S85.041 84.974 82.807 84.974z" fill="#fe9e0d" data-fill-palette-color="accent"></path></svg></g></svg></g></svg></g><defs></defs></svg><rect width="395.5199999999999" height="88.61094291074265" fill="none" stroke="none" visibility="hidden"></rect></g></svg></g></svg>